<?xml version="1.0" standalone="no"?>
<!DOCTYPE svg PUBLIC "-//W3C//DTD SVG 20010904//EN"
 "http://www.w3.org/TR/2001/REC-SVG-20010904/DTD/svg10.dtd">
<svg version="1.0" xmlns="http://www.w3.org/2000/svg"
 width="200.000000pt" height="200.000000pt" viewBox="0 0 200.000000 200.000000"
 preserveAspectRatio="xMidYMid meet">

<g transform="translate(0.000000,200.000000) scale(0.100000,-0.100000)"
fill="#000000" stroke="none">
<path d="M978 1563 c-23 -6 -56 -186 -38 -208 10 -12 9 -15 -4 -15 -38 0 -8
-35 39 -45 17 -4 25 -3 19 2 -23 17 -24 49 -4 150 26 136 27 127 -12 116z"/>
<path d="M1346 1461 c-16 -6 -26 -33 -47 -132 -16 -68 -25 -127 -21 -131 4 -4
19 -10 35 -13 26 -7 27 -6 18 17 -9 23 -5 43 44 246 6 23 2 25 -29 13z"/>
<path d="M890 1156 c0 -2 -7 -41 -16 -87 -9 -46 -14 -101 -11 -121 4 -28 1
-38 -9 -38 -26 0 -14 -21 21 -36 46 -19 46 -19 29 16 -14 27 -13 40 6 136 12
58 19 112 16 120 -5 12 -36 21 -36 10z"/>
<path d="M1493 1133 c-15 -5 -19 -163 -5 -163 26 0 40 30 45 98 6 75 1 82 -40
65z"/>
<path d="M1236 1032 c-11 -19 -47 -194 -44 -219 2 -16 -3 -33 -12 -40 -18 -14
-14 -18 32 -37 l36 -16 -16 32 c-14 30 -14 38 12 145 16 62 25 120 22 128 -6
16 -22 20 -30 7z"/>
<path d="M1358 688 c-16 -13 -33 -148 -19 -148 4 0 16 6 26 14 14 10 20 30 23
80 4 67 -1 76 -30 54z"/>
<path d="M785 580 c-8 -13 15 -13 35 0 12 8 11 10 -7 10 -12 0 -25 -4 -28 -10z"/>
<path d="M1113 439 c-25 -9 -30 -19 -10 -19 15 0 43 17 37 23 -3 3 -15 1 -27
-4z"/>
</g>
</svg>
